<?xml version='1.0' encoding='UTF-8' standalone='no'?>
<!-- Created with Fritzing (http://www.fritzing.org/) -->
<svg xmlns="http://www.w3.org/2000/svg" baseProfile="tiny" xmlns:svg="http://www.w3.org/2000/svg" version="1.2" height="2.22222in"  viewBox="0 0 240 160" y="0in" x="0in" width="3.33333in">
 <g partID="57660">
  <g transform="translate(240,160)">
   <g transform="matrix(-1,0,0,-1,0,0)">
    <g  id="board">
     <rect stroke-width="0.5" height="159.424"  id="boardoutline" y="0.288" stroke="black" x="0.288" fill="none" fill-opacity="0.5" width="239.424"/>
    </g>
   </g>
  </g>
 </g>
 <g partID="163800">
  <g transform="translate(140.302,16.5904)">
   <g  id="copper0">
    <g  id="copper1">
     <!-- <rect width="55" x="10" y="15.5" fill="none" height="55" stroke="rgb(255, 191, 0)" stroke-width="20" />  -->
     <circle stroke-width="2.16"  cy="3.096" id="connector0pin" stroke="black" cx="2.7" fill="black" r="1.98"/>
     <circle stroke-width="2.16"  cy="3.096" id="connector1pin" stroke="black" cx="31.5" fill="black" r="1.98"/>
    </g>
   </g>
  </g>
 </g>
 <g partID="176250">
  <g transform="translate(136.087,91.1584)">
   <g  id="copper0">
    <circle stroke-width="1.57039"  cy="3.01732" id="connector0pin" stroke="black" cx="3.01732" fill="black" r="0.992124"/>
   </g>
  </g>
 </g>
 <g partID="65940">
  <g transform="translate(216.082,119.766)">
   <g transform="matrix(-1,0,0,-1,0,0)">
    <g  id="copper0">
     <g  id="copper1">
      <circle stroke-width="2.16"  cy="2.88" id="connector1pin" stroke="black" cx="2.88" fill="black" r="2.16"/>
      <circle stroke-width="2.16"  cy="2.88" id="connector0pin" stroke="black" cx="31.68" fill="black" r="2.16"/>
     </g>
    </g>
   </g>
  </g>
 </g>
 <g partID="65480">
  <g transform="translate(216.082,107.166)">
   <g transform="matrix(-1,0,0,-1,0,0)">
    <g  id="copper0">
     <g  id="copper1">
      <circle stroke-width="2.16"  cy="2.88" id="connector1pin" stroke="black" cx="2.88" fill="black" r="2.16"/>
      <circle stroke-width="2.16"  cy="2.88" id="connector0pin" stroke="black" cx="31.68" fill="black" r="2.16"/>
     </g>
    </g>
   </g>
  </g>
 </g>
 <g partID="77660">
  <g transform="translate(170.79,134.776)">
   <g transform="matrix(0,-1,1,0,0,0)">
    <g flipped="1" id="copper0">
     <g transform="matrix(-1, 0, 0, 1, 20.16, 0)">
      <g>
       <g>
        <g>
         <circle stroke-width="2.16" id="connector0pin" cy="2.88" stroke="black" cx="2.88" fill="black" r="1.8"/>
         <circle stroke-width="2.16" id="connector1pin" cy="2.88" stroke="black" cx="17.28" fill="black" r="1.8"/>
        </g>
        <g>
         <g id="copper1">
          <circle stroke-width="2.16" id="connector0pin" cy="2.88" stroke="black" cx="2.88" fill="black" r="1.8"/>
          <circle stroke-width="2.16" id="connector1pin" cy="2.88" stroke="black" cx="17.28" fill="black" r="1.8"/>
         </g>
        </g>
       </g>
      </g>
     </g>
    </g>
   </g>
  </g>
 </g>
 <g partID="72220">
  <g transform="translate(150.922,121.566)">
   <g transform="matrix(0,-1,1,0,0,0)">
    <g flipped="1" id="copper0">
     <g transform="matrix(-1, 0, 0, 1, 20.16, 0)">
      <g>
       <g>
        <g>
         <circle stroke-width="2.16" id="connector0pin" cy="2.88" stroke="black" cx="2.88" fill="black" r="1.8"/>
         <circle stroke-width="2.16" id="connector1pin" cy="2.88" stroke="black" cx="17.28" fill="black" r="1.8"/>
        </g>
        <g>
         <g id="copper1">
          <circle stroke-width="2.16" id="connector0pin" cy="2.88" stroke="black" cx="2.88" fill="black" r="1.8"/>
          <circle stroke-width="2.16" id="connector1pin" cy="2.88" stroke="black" cx="17.28" fill="black" r="1.8"/>
         </g>
        </g>
       </g>
      </g>
     </g>
    </g>
   </g>
  </g>
 </g>
 <g partID="78400">
  <g transform="translate(48.6819,159.366)">
   <g transform="matrix(-1,0,0,-1,0,0)">
    <g  id="copper0">
     <g  id="copper1">
      <circle stroke-width="2.16"  cy="2.88" id="connector1pin" stroke="black" cx="2.88" fill="black" r="2.16"/>
      <circle stroke-width="2.16"  cy="2.88" id="connector0pin" stroke="black" cx="31.68" fill="black" r="2.16"/>
     </g>
    </g>
   </g>
  </g>
 </g>
 <g partID="78640">
  <g transform="translate(84.3219,70.8064)">
   <g transform="matrix(1,0,0,1,0,0)">
    <g  id="copper0">
     <g  id="copper1">
      <circle stroke-width="2.16"  id="connector0pin" cy="2.88" stroke="black" cx="2.88" fill="black" r="1.8"/>
      <circle stroke-width="2.16"  id="connector1pin" cy="2.88" stroke="black" cx="10.0933" fill="black" r="1.8"/>
     </g>
    </g>
   </g>
  </g>
 </g>
 <g partID="79200">
  <g transform="translate(113.842,64.3264)">
   <g  id="copper0">
    <rect stroke-width="2.16" height="3.96"  y="5.58" id="rect11" stroke="black" x="1.98" fill="black" width="3.96"/>
    <circle stroke-width="2.16"  cy="7.56" id="connector0pin" stroke="black" cx="3.96" fill="black" r="1.98"/>
    <circle stroke-width="2.16"  cy="7.56" id="connector1pin" stroke="black" cx="11.16" fill="black" r="1.98"/>
   </g>
  </g>
 </g>
 <g partID="80710">
  <g transform="translate(130.978,172.902)">
   <g transform="matrix(-1,0,0,-1,0,0)">
    <g  id="copper0">
     <circle stroke-width="1.44"  id="connector1pad" cy="52.416" stroke="black" cx="7.776" fill="black" connectorname="IN" r="1.8"/>
     <path stroke-width="0.72"  stroke="black" d="m7.776,48.096a2.16,2.16,0,0,1,2.16,2.16l0,4.32a2.16,2.16,0,0,1,-2.16,2.16l0,0a2.16,2.16,0,0,1,-2.16,-2.16l0,-4.32a2.16,2.16,0,0,1,2.16,-2.16l0,0zM6.336,52.416a1.44,1.44,0,1,0,2.88,0,1.44,1.44,0,1,0,-2.88,0z" fill="black"/>
     <circle stroke-width="1.44"  id="connector0pad" cy="52.416" stroke="black" cx="14.976" fill="black" connectorname="GND" r="1.8"/>
     <path stroke-width="0.72"  stroke="black" d="m14.976,48.096a2.16,2.16,0,0,1,2.16,2.16l0,4.32a2.16,2.16,0,0,1,-2.16,2.16l0,0a2.16,2.16,0,0,1,-2.16,-2.16l0,-4.32a2.16,2.16,0,0,1,2.16,-2.16l0,0zM13.536,52.416a1.44,1.44,0,1,0,2.88,0,1.44,1.44,0,1,0,-2.88,0z" fill="black"/>
     <circle stroke-width="1.44"  id="connector2pad" cy="52.416" stroke="black" cx="22.176" fill="black" connectorname="OUT" r="1.8"/>
     <path stroke-width="0.72"  stroke="black" d="m22.176,48.096a2.16,2.16,0,0,1,2.16,2.16l0,4.32a2.16,2.16,0,0,1,-2.16,2.16l0,0a2.16,2.16,0,0,1,-2.16,-2.16l0,-4.32a2.16,2.16,0,0,1,2.16,-2.16l0,0zM20.736,52.416a1.44,1.44,0,1,0,2.88,0,1.44,1.44,0,1,0,-2.88,0z" fill="black"/>
     <circle stroke-width="0.72"  cy="9.936" id="nonconn1" stroke="black" cx="14.976" fill="black" r="4.68"/>
    </g>
   </g>
  </g>
 </g>
 <g partID="80740">
  <g transform="translate(102.502,16.5904)">
   <g  id="copper0">
    <g  id="copper1">
     <!-- <rect width="55" x="10" y="15.5" fill="none" height="55" stroke="rgb(255, 191, 0)" stroke-width="20" />  -->
     <circle stroke-width="2.16"  cy="3.096" id="connector0pin" stroke="black" cx="2.7" fill="black" r="1.98"/>
     <circle stroke-width="2.16"  cy="3.096" id="connector1pin" stroke="black" cx="31.5" fill="black" r="1.98"/>
    </g>
   </g>
  </g>
 </g>
 <g partID="81320">
  <g transform="translate(84.3219,90.6064)">
   <g  id="copper0">
    <g  id="copper1">
     <circle stroke-width="2.16"  id="connector0pin" cy="2.88" stroke="black" cx="2.88" fill="black" r="1.8"/>
     <circle stroke-width="2.16"  id="connector1pin" cy="2.88" stroke="black" cx="10.0933" fill="black" r="1.8"/>
    </g>
   </g>
  </g>
 </g>
 <g partID="81840">
  <g transform="translate(113.842,84.1264)">
   <g  id="copper0">
    <rect stroke-width="2.16" height="3.96"  y="5.58" id="rect11" stroke="black" x="1.98" fill="black" width="3.96"/>
    <circle stroke-width="2.16"  cy="7.56" id="connector0pin" stroke="black" cx="3.96" fill="black" r="1.98"/>
    <circle stroke-width="2.16"  cy="7.56" id="connector1pin" stroke="black" cx="11.16" fill="black" r="1.98"/>
   </g>
  </g>
 </g>
 <g partID="83850">
  <g transform="translate(18.0819,76.5664)">
   <g  id="copper0">
    <rect stroke-width="2.16" height="3.96"  y="2.34" stroke="black" x="2.34" fill="black" width="3.96"/>
    <circle stroke-width="2.16"  cy="4.32" id="connector0pin" stroke="black" cx="4.32" fill="black" r="1.98"/>
    <circle stroke-width="2.16"  cy="4.32" id="connector13pin" stroke="black" cx="25.92" fill="black" r="1.98"/>
    <circle stroke-width="2.16"  cy="11.52" id="connector1pin" stroke="black" cx="4.32" fill="black" r="1.98"/>
    <circle stroke-width="2.16"  cy="11.52" id="connector12pin" stroke="black" cx="25.92" fill="black" r="1.98"/>
    <circle stroke-width="2.16"  cy="18.72" id="connector2pin" stroke="black" cx="4.32" fill="black" r="1.98"/>
    <circle stroke-width="2.16"  cy="18.72" id="connector11pin" stroke="black" cx="25.92" fill="black" r="1.98"/>
    <circle stroke-width="2.16"  cy="25.92" id="connector3pin" stroke="black" cx="4.32" fill="black" r="1.98"/>
    <circle stroke-width="2.16"  cy="25.92" id="connector10pin" stroke="black" cx="25.92" fill="black" r="1.98"/>
    <circle stroke-width="2.16"  cy="33.12" id="connector4pin" stroke="black" cx="4.32" fill="black" r="1.98"/>
    <circle stroke-width="2.16"  cy="33.12" id="connector9pin" stroke="black" cx="25.92" fill="black" r="1.98"/>
    <circle stroke-width="2.16"  cy="40.32" id="connector5pin" stroke="black" cx="4.32" fill="black" r="1.98"/>
    <circle stroke-width="2.16"  cy="40.32" id="connector8pin" stroke="black" cx="25.92" fill="black" r="1.98"/>
    <circle stroke-width="2.16"  cy="47.52" id="connector6pin" stroke="black" cx="4.32" fill="black" r="1.98"/>
    <circle stroke-width="2.16"  cy="47.52" id="connector7pin" stroke="black" cx="25.92" fill="black" r="1.98"/>
   </g>
  </g>
 </g>
 <g partID="63110">
  <g transform="translate(202.042,147.486)">
   <g transform="matrix(-1,0,0,-1,0,0)">
    <g  id="copper0">
     <rect stroke-width="2.16" height="4.464"  y="12.168" stroke="black" x="6.408" fill="black" width="4.464"/>
     <circle stroke-width="2.16"  cy="14.4" id="connector0pad" stroke="black" cx="8.64" fill="black" r="2.232"/>
     <circle stroke-width="2.16"  cy="14.4" id="connector1pad" stroke="black" cx="15.84" fill="black" r="2.232"/>
     <circle stroke-width="2.16"  cy="14.4" id="connector2pad" stroke="black" cx="23.04" fill="black" r="2.232"/>
    </g>
   </g>
  </g>
 </g>
 <g partID="64270">
  <g transform="translate(239.842,147.486)">
   <g transform="matrix(-1,0,0,-1,0,0)">
    <g  id="copper0">
     <rect stroke-width="2.16" height="4.464"  y="12.168" stroke="black" x="6.408" fill="black" width="4.464"/>
     <circle stroke-width="2.16"  cy="14.4" id="connector0pad" stroke="black" cx="8.64" fill="black" r="2.232"/>
     <circle stroke-width="2.16"  cy="14.4" id="connector1pad" stroke="black" cx="15.84" fill="black" r="2.232"/>
     <circle stroke-width="2.16"  cy="14.4" id="connector2pad" stroke="black" cx="23.04" fill="black" r="2.232"/>
    </g>
   </g>
  </g>
 </g>
 <g partID="58810">
  <g transform="translate(205.138,88.9504)">
   <g transform="matrix(0,-1,1,0,0,0)">
    <g  id="copper0">
     <circle stroke-width="2.10841"  id="connector0pad" cy="2.664" stroke="black" cx="2.664" fill="black" connectorname="A" r="1.9698"/>
     <circle stroke-width="2.10841"  id="connector1pad" cy="2.664" stroke="black" cx="24.264" fill="black" connectorname="C" r="1.9698"/>
    </g>
   </g>
  </g>
 </g>
 <g partID="59120">
  <g transform="translate(179.938,88.9504)">
   <g transform="matrix(-4.44089e-16,-1,1,-4.44089e-16,0,0)">
    <g  id="copper0">
     <circle stroke-width="2.10841"  id="connector0pad" cy="2.664" stroke="black" cx="2.664" fill="black" connectorname="A" r="1.9698"/>
     <circle stroke-width="2.10841"  id="connector1pad" cy="2.664" stroke="black" cx="24.264" fill="black" connectorname="C" r="1.9698"/>
    </g>
   </g>
  </g>
 </g>
 <g partID="59850">
  <g transform="translate(221.698,61.9864)">
   <g transform="matrix(0,1,-1,0,0,0)">
    <g  id="copper0">
     <g  id="copper1">
      <!-- <rect width="55" x="10" y="15.5" fill="none" height="55" stroke="rgb(255, 191, 0)" stroke-width="20" />  -->
      <circle stroke-width="2.16"  cy="3.096" id="connector0pin" stroke="black" cx="2.7" fill="black" r="1.98"/>
      <circle stroke-width="2.16"  cy="3.096" id="connector1pin" stroke="black" cx="31.5" fill="black" r="1.98"/>
     </g>
    </g>
   </g>
  </g>
 </g>
 <g partID="60800">
  <g transform="translate(192.106,96.1864)">
   <g transform="matrix(-4.44089e-16,-1,1,-4.44089e-16,0,0)">
    <g  id="copper0">
     <g  id="copper1">
      <!-- <rect width="55" x="10" y="15.5" fill="none" height="55" stroke="rgb(255, 191, 0)" stroke-width="20" />  -->
      <circle stroke-width="2.16"  cy="3.096" id="connector0pin" stroke="black" cx="2.7" fill="black" r="1.98"/>
      <circle stroke-width="2.16"  cy="3.096" id="connector1pin" stroke="black" cx="31.5" fill="black" r="1.98"/>
     </g>
    </g>
   </g>
  </g>
 </g>
 <g partID="57730">
  <g transform="translate(142.282,35.1664)">
   <g gorn="0.1.0"  id="copper0">
    <rect gorn="0.1.0.0" stroke-width="2.16" height="3.96"  y="2.34" id="square" stroke="black" x="2.34" fill="black" width="3.96"/>
    <circle gorn="0.1.0.1" stroke-width="2.16"  cy="4.32" id="connector0pin" stroke="black" cx="4.32" fill="black" r="1.98"/>
    <circle gorn="0.1.0.2" stroke-width="2.16"  cy="4.32" id="connector7pin" stroke="black" cx="25.92" fill="black" r="1.98"/>
    <circle gorn="0.1.0.3" stroke-width="2.16"  cy="11.52" id="connector1pin" stroke="black" cx="4.32" fill="black" r="1.98"/>
    <circle gorn="0.1.0.4" stroke-width="2.16"  cy="11.52" id="connector6pin" stroke="black" cx="25.92" fill="black" r="1.98"/>
    <circle gorn="0.1.0.5" stroke-width="2.16"  cy="18.72" id="connector2pin" stroke="black" cx="4.32" fill="black" r="1.98"/>
    <circle gorn="0.1.0.6" stroke-width="2.16"  cy="18.72" id="connector5pin" stroke="black" cx="25.92" fill="black" r="1.98"/>
    <circle gorn="0.1.0.7" stroke-width="2.16"  cy="25.92" id="connector3pin" stroke="black" cx="4.32" fill="black" r="1.98"/>
    <circle gorn="0.1.0.8" stroke-width="2.16"  cy="25.92" id="connector4pin" stroke="black" cx="25.92" fill="black" r="1.98"/>
   </g>
  </g>
 </g>
 <g partID="83070">
  <g transform="translate(187.102,52.5904)">
   <g  id="copper0">
    <g  id="copper1">
     <!-- <rect width="55" x="10" y="15.5" fill="none" height="55" stroke="rgb(255, 191, 0)" stroke-width="20" />  -->
     <circle stroke-width="2.16"  cy="3.096" id="connector0pin" stroke="black" cx="2.7" fill="black" r="1.98"/>
     <circle stroke-width="2.16"  cy="3.096" id="connector1pin" stroke="black" cx="31.5" fill="black" r="1.98"/>
    </g>
   </g>
  </g>
 </g>
 <g partID="58420">
  <g transform="translate(187.102,52.5904)">
   <g  id="copper0">
    <g  id="copper1">
     <!-- <rect width="55" x="10" y="15.5" fill="none" height="55" stroke="rgb(255, 191, 0)" stroke-width="20" />  -->
     <circle stroke-width="2.16"  cy="3.096" id="connector0pin" stroke="black" cx="2.7" fill="black" r="1.98"/>
     <circle stroke-width="2.16"  cy="3.096" id="connector1pin" stroke="black" cx="31.5" fill="black" r="1.98"/>
    </g>
   </g>
  </g>
 </g>
 <g partID="83080">
  <g transform="translate(238.348,81.0992)">
   <g transform="matrix(4.44089e-16,1,-1,4.44089e-16,0,0)">
    <g  id="copper0">
     <g  id="copper1">
      <circle stroke-width="1.85384"  id="connector1pad" cy="10.6336" stroke="black" cx="8.7876" fill="black" r="1.7008"/>
      <rect stroke-width="1.85384" height="3.4016"  y="8.9328" stroke="black" x="7.0868" fill="black" width="3.4016"/>
      <circle stroke-width="1.85384"  id="connector0pad" cy="3.5464" stroke="black" cx="8.7876" fill="black" r="1.7008"/>
     </g>
    </g>
   </g>
  </g>
 </g>
 <g partID="58450">
  <g transform="translate(238.348,46.8992)">
   <g transform="matrix(4.44089e-16,1,-1,4.44089e-16,0,0)">
    <g  id="copper0">
     <g  id="copper1">
      <circle stroke-width="1.85384"  id="connector1pad" cy="10.6336" stroke="black" cx="8.7876" fill="black" r="1.7008"/>
      <rect stroke-width="1.85384" height="3.4016"  y="8.9328" stroke="black" x="7.0868" fill="black" width="3.4016"/>
      <circle stroke-width="1.85384"  id="connector0pad" cy="3.5464" stroke="black" cx="8.7876" fill="black" r="1.7008"/>
     </g>
    </g>
   </g>
  </g>
 </g>
</svg>
